<?xml version="1.0" encoding="UTF-8"?>
<svg width="147px" height="31px" viewBox="0 0 147 31" version="1.1" xmlns="http://www.w3.org/2000/svg" xmlns:xlink="http://www.w3.org/1999/xlink">
  <g stroke="none" stroke-width="1" fill="none" fill-rule="evenodd">
    <g transform="translate(-118.000000, -2083.000000)">
      <g transform="translate(118.000000, 2083.000000)">
        <path d="M0,0 L14.8601758,0 C14.8592833,4.91571429 14.8601758,9.83142857 14.8592833,14.7471429 L0,14.7471429 L0,0" fill="#f25022"></path>
        <path d="M14.8601758,0 L16.377431,0 C16.377431,4.91571429 16.3765385,9.83142857 16.3783235,14.7471429 C21.3308229,14.7471429 26.2842148,14.7462571 31.2367143,14.7471429 C31.2384993,9.83142857 31.2376068,4.91571429 31.2376068,0 L146.28125,0 L146.28125,11.4691143 C145.220956,11.4726571 144.160663,11.4611429 143.101262,11.4762 C143.077164,10.1449714 143.098584,8.81374286 143.089659,7.4834 C142.029365,7.80048571 140.975319,8.13794286 139.909671,8.43908571 C139.883788,9.4488 139.907886,10.4594 139.896283,11.4691143 C138.329048,11.4682286 136.761812,11.4708857 135.194577,11.4673429 C135.214212,10.6719714 135.139242,9.8704 135.254375,9.07945714 C135.349873,8.45591429 135.714014,7.83237143 136.326271,7.59145714 C137.098286,7.27702857 137.961337,7.48605714 138.694974,7.80668571 C138.690512,6.89528571 138.702114,5.98388571 138.688727,5.07337143 C137.144696,4.65177143 135.374863,4.73414286 134.004871,5.61897143 C133.121293,6.18051429 132.480475,7.07862857 132.192197,8.07417143 C131.851261,9.17688571 132.025299,10.3416 131.970856,11.4735429 C131.227401,11.4682286 130.484839,11.4611429 129.743168,11.4779714 C129.751201,12.3300286 129.747631,13.1820857 129.744953,14.0332571 C130.490194,14.0483143 131.236326,14.0306 131.981566,14.0447714 C131.975319,17.6301429 131.979781,21.2146286 131.979781,24.8 L135.193685,24.8 C135.193685,21.2137429 135.192792,17.6274857 135.194577,14.0412286 C136.761812,14.0385714 138.32994,14.0394571 139.898068,14.0403429 C139.902531,16.3263714 139.893606,18.6115143 139.901638,20.8966571 C139.915918,21.9612857 140.098881,23.0994286 140.809314,23.9399714 C141.424248,24.6839714 142.400647,25.0240857 143.34313,25.0931714 C144.336486,25.1631429 145.362864,25.0426857 146.28125,24.6467714 L146.28125,31 L31.2376068,31 L31.2376068,16.2528571 C26.2842148,16.2528571 21.3308229,16.2519714 16.3783235,16.2537429 C16.3765385,21.1685714 16.3783235,26.0842857 16.377431,31 L14.8601758,31 C14.8601758,26.0842857 14.8610683,21.1694571 14.8601758,16.2537429 C9.90678386,16.2510857 4.95339193,16.2537429 0,16.2519714 L0,14.7471429 L14.8592833,14.7471429 C14.8601758,9.83142857 14.8592833,4.91571429 14.8601758,0" fill="#fefefe"></path>
        <path d="M16.377431,0 L31.2376068,0 C31.2376068,4.91571429 31.2384993,9.83142857 31.2367143,14.7471429 C26.2842148,14.7462571 21.3308229,14.7471429 16.3783235,14.7471429 C16.3765385,9.83142857 16.377431,4.91571429 16.377431,0" fill="#80ba01"></path>
        <path d="M134.004871,5.61897143 C135.374863,4.73414286 137.144696,4.65177143 138.688727,5.07337143 C138.702114,5.98388571 138.690512,6.89528571 138.694974,7.80668571 C137.961337,7.48605714 137.098286,7.27702857 136.326271,7.59145714 C135.714014,7.83237143 135.349873,8.45591429 135.254375,9.07945714 C135.139242,9.8704 135.214212,10.6719714 135.194577,11.4673429 C136.761812,11.4708857 138.329048,11.4682286 139.896283,11.4691143 C139.907886,10.4594 139.883788,9.4488 139.909671,8.43908571 C140.975319,8.13794286 142.029365,7.80048571 143.089659,7.4834 C143.098584,8.81374286 143.077164,10.1449714 143.101262,11.4762 C144.160663,11.4611429 145.220956,11.4726571 146.28125,11.4691143 L146.28125,14.0589429 C145.217386,14.0155429 144.15263,14.0474286 143.088767,14.0438857 C143.093229,15.5327714 143.089659,17.0216571 143.090552,18.5114286 C143.107509,19.3360286 143.045926,20.1650571 143.143209,20.987 C143.202114,21.4714857 143.379723,22.0082286 143.837577,22.2588857 C144.604237,22.6849143 145.577065,22.4989143 146.28125,22.0312571 L146.28125,24.6467714 C145.362864,25.0426857 144.336486,25.1631429 143.34313,25.0931714 C142.400647,25.0240857 141.424248,24.6839714 140.809314,23.9399714 C140.098881,23.0994286 139.915918,21.9612857 139.901638,20.8966571 C139.893606,18.6115143 139.902531,16.3263714 139.898068,14.0403429 C138.32994,14.0394571 136.761812,14.0385714 135.194577,14.0412286 C135.192792,17.6274857 135.193685,21.2137429 135.193685,24.8 L131.979781,24.8 C131.979781,21.2146286 131.975319,17.6301429 131.981566,14.0447714 C131.236326,14.0306 130.490194,14.0483143 129.744953,14.0332571 C129.747631,13.1820857 129.751201,12.3300286 129.743168,11.4779714 C130.484839,11.4611429 131.227401,11.4682286 131.970856,11.4735429 C132.025299,10.3416 131.851261,9.17688571 132.192197,8.07417143 C132.480475,7.07862857 133.121293,6.18051429 134.004871,5.61897143" fill="#777777"></path>
        <path d="M65.1946703,5.80497143 C65.8426276,5.70754286 66.544135,5.9272 66.9734289,6.43028571 C67.4768006,6.9812 67.569621,7.85805714 67.1965547,8.50197143 C66.7842183,9.22825714 65.8613701,9.56571429 65.0572249,9.39122857 C64.2227345,9.24242857 63.5274746,8.47274286 63.5649598,7.61448571 C63.5408622,6.71105714 64.3021673,5.90594286 65.1946703,5.80497143" fill="#777777"></path>
        <path d="M40.5642637,6.2 L45.2383021,6.2 C46.6930821,9.86597143 48.1585721,13.5284 49.6151371,17.1943714 C49.9873109,18.1110857 50.3353871,19.0384286 50.7254109,19.9480571 C52.5969898,15.3671429 54.4953438,10.7977429 56.3526426,6.21062857 C57.8511552,6.18671429 59.3505604,6.20531429 60.8499655,6.20177143 C60.8463955,12.4008857 60.8481805,18.6 60.849073,24.7991143 C59.7673593,24.7964571 58.6865381,24.8079714 57.6057169,24.7929143 C57.6173194,20.2182 57.6048244,15.6434857 57.6110719,11.0678857 C57.6128569,10.8624 57.6057169,10.6569143 57.5914369,10.4514286 C57.5280691,10.5470857 57.4718414,10.6462857 57.4227538,10.7490286 C55.5654549,15.4318 53.672456,20.1012857 51.8258671,24.7884857 C51.0565295,24.8159429 50.2862994,24.7902571 49.5160692,24.8026571 C47.5998652,20.1198857 45.7077587,15.4264857 43.8013722,10.7401714 C43.751392,10.6427429 43.6978419,10.5479714 43.6398292,10.4567429 C43.600559,12.4611143 43.6335816,14.4672571 43.6228716,16.4716286 C43.6237641,19.2474571 43.6210866,22.0232857 43.6237641,24.7991143 C42.6036331,24.8017714 41.5835021,24.7991143 40.5642637,24.8 C40.5633711,18.6 40.5624786,12.4 40.5642637,6.2" fill="#777777"></path>
        <path d="M74.0393756,11.4567143 C75.5905459,11.0182857 77.2630966,11.036 78.8133744,11.4708857 C79.1328905,11.5594571 79.442589,11.6825714 79.729975,11.8499714 C79.712125,12.8658857 79.729975,13.8826857 79.7201575,14.8994857 C78.6839614,14.1138571 77.3693045,13.6160857 76.05197,13.7808286 C75.0059564,13.8747143 74.008138,14.4132286 73.3824933,15.252 C72.5783481,16.2918286 72.3927074,17.6726571 72.5310454,18.9445429 C72.6345758,19.9400857 73.0495897,20.9347429 73.8296374,21.5946 C74.6400301,22.3093714 75.7761865,22.5626857 76.8364801,22.4829714 C77.8842787,22.3634 78.8731721,21.9232 79.7201575,21.3085143 C79.7290825,22.2712857 79.715695,23.2340571 79.7272975,24.1968286 C78.413533,24.9727143 76.8382651,25.1728857 75.3343975,25.0993714 C73.7957222,25.0187714 72.2615095,24.4404 71.1476657,23.3669143 C69.9374316,22.2092857 69.2805493,20.5583143 69.2029015,18.9046857 C69.1243613,17.1855143 69.4769,15.3919429 70.4738259,13.9562 C71.3092087,12.7312571 72.6158332,11.8641429 74.0393756,11.4567143" fill="#777777"></path>
        <path d="M95.8137725,11.2273143 C97.3560178,11.0324571 98.9830508,11.1192571 100.414626,11.7658286 C101.65699,12.3220571 102.663733,13.3503714 103.221548,14.5815143 C103.816847,15.8923714 103.961433,17.3644286 103.86058,18.786 C103.761512,20.1739143 103.322401,21.5644857 102.447748,22.6672 C101.552567,23.8381143 100.203103,24.6317143 98.7581401,24.9266571 C97.5229158,25.1817429 96.2305714,25.1808571 94.9953472,24.9231143 C93.5173621,24.6095714 92.149155,23.7584 91.2825345,22.5201714 C90.265081,21.0853143 89.97591,19.2607429 90.105323,17.5415714 C90.1927883,16.0828 90.6497498,14.6125143 91.5886631,13.4681714 C92.6168266,12.1865429 94.1938795,11.4301429 95.8137725,11.2273143" fill="#777777"></path>
        <path d="M109.145983,11.2538857 C110.632001,10.9943714 112.187633,11.1848 113.594218,11.7135714 C113.596003,12.6914 113.594218,13.6683429 113.595111,14.6452857 C112.612465,13.9748 111.412048,13.6143143 110.219664,13.6559429 C109.61901,13.6789714 108.958557,13.9314 108.684559,14.4982571 C108.466788,15.0589143 108.617621,15.7940571 109.150446,16.1297429 C110.061691,16.7346857 111.14876,16.9915429 112.093028,17.5336 C112.836483,17.9481143 113.557626,18.4901714 113.934262,19.2713714 C114.642017,20.7345714 114.342136,22.6680857 113.097987,23.7592857 C111.910065,24.8611143 110.199137,25.1658 108.625654,25.1073429 C107.50824,25.0356 106.385471,24.8168286 105.3582,24.3633429 C105.362663,23.3350286 105.351953,22.3076 105.363555,21.2801714 C106.227498,21.9028286 107.224424,22.3483429 108.279363,22.5290286 C109.013893,22.6477143 109.812683,22.6530286 110.497233,22.3270857 C111.15233,22.0038 111.27014,21.08 110.881009,20.5149143 C110.516868,20.0791429 109.982258,19.8391143 109.477994,19.6035143 C108.531048,19.1810286 107.535908,18.8276286 106.704095,18.1943429 C106.119505,17.7417429 105.676824,17.1040286 105.503678,16.3848286 C105.246637,15.3246286 105.326963,14.1298 105.948145,13.2033429 C106.657685,12.1236571 107.890231,11.4762 109.145983,11.2538857" fill="#777777"></path>
        <path d="M121.429503,11.2228857 C123.033331,11.0253714 124.736226,11.1325429 126.199931,11.8659143 C127.476211,12.4992 128.465997,13.6435429 128.960443,14.9668 C129.346897,15.9791714 129.482558,17.0721429 129.460245,18.1500571 C129.462923,19.7602857 129.024704,21.4130286 128.006358,22.6902286 C127.053164,23.9266857 125.594814,24.7300286 124.055247,24.9824571 C122.549594,25.2242571 120.959153,25.1613714 119.528471,24.6024857 C118.079046,24.0365143 116.874167,22.8815429 116.263695,21.4590857 C115.62734,20.0091714 115.560402,18.3776857 115.758538,16.8285714 C115.966491,15.2794571 116.673354,13.7648857 117.878233,12.7348 C118.865341,11.8747714 120.136266,11.3876286 121.429503,11.2228857" fill="#777777"></path>
        <path d="M86.9164096,11.6737143 C87.8035576,11.1449429 88.930789,11.1006571 89.8991548,11.4239429 C89.8946923,12.4876857 89.8991548,13.5514286 89.8964773,14.6151714 C89.2628001,14.2077429 88.4720424,14.0332571 87.7241248,14.1085429 C86.8119867,14.2112857 86.0890593,14.9065714 85.714208,15.7037143 C85.3072266,16.5478 85.2304713,17.5026 85.2563539,18.4255143 C85.2563539,20.5503429 85.2572464,22.6751714 85.2563539,24.8 L82.0879681,24.8 C82.0852906,20.3590286 82.0915381,15.9171714 82.0852906,11.4762 C83.1429067,11.4629143 84.2005228,11.4682286 85.2581389,11.4735429 C85.2536764,12.2361429 85.2581389,12.9987429 85.2554614,13.7622286 C85.5990751,12.9323143 86.1104793,12.1263143 86.9164096,11.6737143" fill="#777777"></path>
        <path d="M63.8568083,11.4735429 C64.9224569,11.4691143 65.9889981,11.4584857 67.0546467,11.4788571 C67.0421517,15.9189429 67.0537542,20.3599143 67.0492917,24.8 L63.8585933,24.8 C63.8559158,20.3581429 63.8594858,15.9162857 63.8568083,11.4735429"  fill="#777777"></path>
        <path d="M96.7723208,13.7586857 C97.7380091,13.6958 98.7661726,13.9668286 99.46054,14.6638857 C100.203103,15.3884 100.490488,16.4397429 100.569921,17.4423714 C100.627041,18.5397714 100.581524,19.6832286 100.117422,20.7000286 C99.8104012,21.3855714 99.2481242,21.9648286 98.5385843,22.2394 C97.7085565,22.5556 96.7758908,22.5742 95.9190879,22.3536571 C95.0471124,22.1260286 94.3072273,21.5007143 93.9047085,20.7044571 C93.3870567,19.6788 93.3094089,18.4928286 93.4165093,17.3679714 C93.5137921,16.3449714 93.8725784,15.2927429 94.657981,14.5868286 C95.227398,14.0589429 96.0038756,13.8012 96.7723208,13.7586857" fill="#fefefe"></path>
        <path d="M122.297016,13.7613429 C123.204691,13.6984571 124.173949,13.9066 124.871887,14.5150857 C125.515382,15.0447429 125.87149,15.8383429 126.034818,16.6372571 C126.218674,17.5743429 126.216889,18.5442 126.061593,19.4857143 C125.938428,20.1872 125.693882,20.8869143 125.230673,21.4422571 C124.763894,22.0002571 124.069527,22.3403714 123.352847,22.4448857 C122.583509,22.5591429 121.773116,22.5042286 121.053759,22.1968857 C120.277281,21.8709429 119.675734,21.204 119.358895,20.4369714 C118.977797,19.5229143 118.901934,18.5105429 118.977797,17.5327143 C119.050982,16.5858857 119.32141,15.6142571 119.951518,14.8782286 C120.526289,14.1909143 121.408082,13.8109429 122.297016,13.7613429" fill="#fefefe"></path>
        <path d="M143.088767,14.0438857 C144.15263,14.0474286 145.217386,14.0155429 146.28125,14.0589429 L146.28125,22.0312571 C145.577065,22.4989143 144.604237,22.6849143 143.837577,22.2588857 C143.379723,22.0082286 143.202114,21.4714857 143.143209,20.987 C143.045926,20.1650571 143.107509,19.3360286 143.090552,18.5114286 C143.089659,17.0216571 143.093229,15.5327714 143.088767,14.0438857" fill="#fefefe"></path>
        <path d="M0,16.2519714 C4.95339193,16.2537429 9.90678386,16.2510857 14.8601758,16.2537429 C14.8610683,21.1694571 14.8601758,26.0842857 14.8601758,31 L0,31 L0,16.2519714" fill="#02a4ef"></path>
        <path d="M16.3783235,16.2537429 C21.3308229,16.2519714 26.2842148,16.2528571 31.2376068,16.2528571 L31.2376068,31 L16.377431,31 C16.3783235,26.0842857 16.3765385,21.1685714 16.3783235,16.2537429" fill="#ffb902"></path>
      </g>
    </g>
  </g>
</svg>
