<?xml version="1.0" encoding="UTF-8"?>
<svg width="151px" height="31px" viewBox="0 0 151 31" version="1.1" xmlns="http://www.w3.org/2000/svg" xmlns:xlink="http://www.w3.org/1999/xlink">
  <defs>
    <linearGradient x1="100.572432%" y1="-6.01489183%" x2="40.6503273%" y2="58.01193%" id="linearGradient-1">
      <stop stop-color="#EE2A7B" offset="29.15%"></stop>
      <stop stop-color="#CB2D82" offset="48.52%"></stop>
      <stop stop-color="#A7308A" offset="72.17%"></stop>
      <stop stop-color="#913290" offset="90.07%"></stop>
      <stop stop-color="#883293" offset="100%"></stop>
    </linearGradient>
    <linearGradient x1="65.8810343%" y1="78.3969965%" x2="-13.7731138%" y2="-13.4652822%" id="linearGradient-2">
      <stop stop-color="#883293" offset="0%"></stop>
      <stop stop-color="#913290" offset="11.22%"></stop>
      <stop stop-color="#A7308A" offset="31.45%"></stop>
      <stop stop-color="#CB2D82" offset="58.18%"></stop>
      <stop stop-color="#EE2A7B" offset="80.06%"></stop>
    </linearGradient>
  </defs>
  <g stroke="none" stroke-width="1" fill="none" fill-rule="evenodd">
    <g transform="translate(-1018.000000, -2083.000000)">
      <g transform="translate(1018.000000, 2083.000000)">
        <g>
          <g>
            <g>
              <path d="M1.38169935,7.09042553 C4.24379085,0.956382979 11.5141612,-1.71489362 17.6660131,1.15425532 C23.8178649,4.02340426 26.4496732,11.3446809 23.5875817,17.4787234 C22.1400871,20.5457447 19.6069717,22.7553191 16.679085,23.843617 L18.422658,28.6914894 C18.6858388,29.4829787 18.2581699,30.3734043 17.4686275,30.6702128 C16.9751634,30.8351064 16.4488017,30.7691489 16.0540305,30.5053191 L16.0540305,30.5053191 L5.16492375,22.1617021 C5.13202614,22.1617021 5.13202614,22.1287234 5.09912854,22.1287234 L4.86884532,21.9638298 L4.86884532,21.9638298 C0.526361656,18.5010638 -1.08562092,12.3670213 1.38169935,7.09042553 Z" fill="url(#linearGradient-1)"></path>
              <path d="M39.0494553,12.1691489 C37.3058824,6.69468085 31.4830065,3.6606383 25.9891068,5.40851064 C25.4298475,5.57340426 24.9034858,5.80425532 24.4100218,6.06808511 C26.054902,9.76170213 26.1535948,14.1478723 24.311329,18.1053191 C23.5875817,19.6553191 22.6006536,21.0734043 21.4163399,22.2606383 C22.2716776,23.2170213 23.2915033,24.0085106 24.4100218,24.5691489 L22.403268,28.4276596 L22.403268,28.4276596 C22.1071895,29.087234 22.3374728,29.8457447 22.9954248,30.1755319 C23.3901961,30.3734043 23.8178649,30.3734043 24.1797386,30.1755319 L24.1797386,30.1755319 L34.2135076,24.4042553 C34.2464052,24.4042553 34.2464052,24.3712766 34.2793028,24.3712766 L34.5095861,24.2393617 L34.5095861,24.2393617 C38.5559913,21.8319149 40.5298475,16.8521277 39.0494553,12.1691489 Z" fill="url(#linearGradient-2)"></path>
            </g>
            <g transform="translate(47.043573, 2.968085)" id="Shape" fill="#383352">
              <path d="M4.7043573,10.8170213 C4.67145969,10.7510638 4.67145969,10.6521277 4.67145969,10.5531915 C4.67145969,9.69574468 5.6254902,9.06914894 7.07298475,9.06914894 C8.42178649,9.06914894 9.73769063,9.49787234 10.6917211,10.1244681 C11.0535948,10.3553191 11.3496732,10.5861702 11.5799564,10.85 L12.0734205,9.95957447 L13.191939,8.01382979 C11.6786492,6.82659574 9.63899782,5.93617021 7.07298475,5.93617021 C3.02657952,5.93617021 0.822440087,8.1787234 0.822440087,10.7510638 C0.822440087,10.9489362 0.822440087,11.1138298 0.855337691,11.2787234 C1.38169935,16.6212766 9.83638344,14.7744681 9.83638344,17.1819149 C9.83638344,18.1382979 9.01394336,18.7978723 7.27037037,18.7978723 C5.36230937,18.7978723 3.12527233,17.7425532 2.00675381,16.687234 L0.263180828,19.5893617 C1.8751634,21.0734043 4.44117647,21.9638298 7.07298475,21.9638298 C11.283878,21.9638298 13.6854031,19.9191489 13.6854031,17.0829787 C13.7183007,11.1797872 5.36230937,12.6968085 4.7043573,10.8170213 Z"></path>
              <path d="M35.924183,7.15638298 C33.3581699,5.40851064 29.1472767,5.34255319 26.5812636,7.09042553 C26.5812636,7.09042553 26.5812636,7.09042553 26.548366,7.09042553 C26.548366,7.09042553 26.548366,7.09042553 26.5154684,7.09042553 C23.06122,4.74893617 16.679085,5.6393617 15.264488,9.53085106 C15.1,10.0255319 15.0013072,10.5531915 15.0013072,11.1468085 L15.0013072,21.6010638 L19.1464052,21.6010638 L19.1464052,11.1468085 C19.1464052,8.40957447 24.475817,8.37659574 24.475817,11.1468085 L24.5087146,11.1468085 L24.5087146,11.1468085 L24.5087146,21.6010638 L28.6538126,21.6010638 L28.6538126,11.1468085 L28.6538126,11.1468085 C28.6538126,8.37659574 33.9832244,8.40957447 33.9832244,11.1468085 L33.9832244,21.6010638 L38.1283224,21.6010638 L38.1283224,11.1468085 C38.1283224,9.36595745 37.2400871,8.04680851 35.924183,7.15638298 Z"></path>
              <path d="M82.2440087,9.49787234 C83.6257081,9.49787234 84.7442266,10.0585106 85.4679739,11.1468085 L88.0997821,8.67340426 C87.0799564,7.28829787 85.204793,5.93617021 82.0795207,5.93617021 C77.408061,5.93617021 74.0196078,9.26702128 74.0196078,13.95 C74.0196078,18.6659574 77.4409586,21.9638298 82.0795207,21.9638298 C85.204793,21.9638298 87.0799564,20.5787234 88.0997821,19.193617 L85.4679739,16.7202128 C84.7442266,17.7755319 83.6257081,18.4021277 82.2440087,18.4021277 C79.8095861,18.4021277 78.0989107,16.5882979 78.0989107,13.95 C78.0989107,11.3117021 79.8424837,9.49787234 82.2440087,9.49787234 Z"></path>
              <path d="M93.5278867,6.29893617 L93.5278867,0.230851064 C92.2777778,0.362765957 90.8960784,0.527659574 89.4156863,0.692553191 L89.4156863,8.3106383 L89.4156863,21.5680851 L93.5278867,21.5680851 L93.5278867,10.7840426 C94.0542484,8.37659574 99.6139434,8.47553191 99.6139434,11.0808511 L99.6139434,21.5680851 L103.759041,21.5680851 L103.759041,11.1797872 C103.759041,6.56276596 98.2980392,4.91382979 93.5278867,6.29893617 Z"></path>
              <path d="M47.4054466,5.93617021 C42.4050109,5.93617021 39.3784314,9.59680851 39.3784314,13.95 C39.3784314,18.3031915 42.4050109,21.9638298 47.4054466,21.9638298 C52.43878,21.9638298 55.4653595,18.2702128 55.4653595,13.95 C55.4653595,9.62978723 52.4716776,5.93617021 47.4054466,5.93617021 Z M47.4054466,18.4021277 C44.9052288,18.4021277 43.5235294,16.3574468 43.5235294,13.95 C43.5235294,11.5755319 44.9052288,9.53085106 47.4054466,9.53085106 C49.9385621,9.53085106 51.3202614,11.5755319 51.3202614,13.95 C51.3202614,16.3244681 49.9385621,18.4021277 47.4054466,18.4021277 Z"></path>
              <path d="M64.9069717,5.93617021 C59.9065359,5.93617021 56.8799564,9.59680851 56.8799564,13.95 C56.8799564,18.3031915 59.9065359,21.9638298 64.9069717,21.9638298 C69.940305,21.9638298 72.9668845,18.2702128 72.9668845,13.95 C72.9668845,9.62978723 69.940305,5.93617021 64.9069717,5.93617021 Z M64.9069717,18.4021277 C62.4067538,18.4021277 61.0250545,16.3574468 61.0250545,13.95 C61.0250545,11.5755319 62.4067538,9.53085106 64.9069717,9.53085106 C67.4400871,9.53085106 68.8217865,11.5755319 68.8217865,13.95 C68.7888889,16.3244681 67.4071895,18.4021277 64.9069717,18.4021277 Z"></path>
            </g>
          </g>
        </g>
      </g>
    </g>
  </g>
</svg>
