<?xml version="1.0" encoding="UTF-8"?>
<svg width="99px" height="29px" viewBox="0 0 99 29" version="1.1" xmlns="http://www.w3.org/2000/svg" xmlns:xlink="http://www.w3.org/1999/xlink">
  <g stroke="none" stroke-width="1" fill="none" fill-rule="evenodd">
    <g transform="translate(-719.000000, -2084.000000)" fill="#1a2326">
      <g transform="translate(718.000000, 2083.000000)">
        <g>
          <g transform="translate(0.494300, 0.623980)">
            <g transform="translate(0.760216, 0.157429)">
              <g transform="translate(0.090648, 0.177412)">
                <path d="M80.1490583,8.23455165 C77.522772,8.23455165 74.6921524,8.72321177 72.7423307,9.52178981 L73.4983277,14.8546337 C74.9706274,14.1701368 77.316353,13.6286925 79.1070083,13.6286925 C81.1364116,13.6286925 82.222942,14.2734231 82.222942,15.7945218 C82.222942,15.908603 82.2216343,16.3234811 82.1820773,16.7037615 C74.1042499,16.7037615 71.0260131,18.2264686 71.0260131,22.7517377 C71.0260131,26.7446311 73.4996289,29.0346859 77.7176084,29.0346859 C79.5082572,29.0346859 81.1829222,29.0506035 82.7746155,27.7576639 L82.9687228,27.7576639 L83.2752081,29.0346859 L88.7408622,29.0346859 C87.8950152,27.5286842 87.8149138,24.2568991 87.8418387,22.363523 C87.8759755,19.9669519 88.0665946,17.1692039 88.0665946,15.1917675 C88.0665946,10.0580557 84.4068335,8.23455165 80.1490583,8.23455165 Z M82.0901317,20.800448 L82.1207639,21.3112568 C82.1794979,22.2430473 81.8986887,23.0436653 81.2626051,23.701842 C80.6259526,24.3514797 79.8096164,24.704142 78.820939,24.7541081 C78.0280265,24.7941915 77.3914917,24.6577688 76.9207303,24.3556773 C76.4592011,24.0445563 76.2218033,23.5986603 76.1851656,23.0173582 C76.1452784,22.3847693 76.3828168,21.8987834 76.9105141,21.5462289 C77.4480027,21.1931873 78.2660323,20.9886741 79.3623964,20.9332583 L82.0901317,20.800448 Z"></path>
                <path d="M56.9434739,13.8534909 L56.9434739,8.24084481 L52.1613784,8.24084481 L52.1613784,1.40290163 L45.6713867,3.89302014 L45.6713867,8.24084481 L42.639873,8.24084481 L42.639873,13.8534909 L45.6713867,13.8534909 L45.6713867,20.2171289 C45.6713867,24.0906386 46.9950141,28.833723 54.5951233,29.031348 L56.5591953,23.4582328 C53.3995986,23.1025039 52.1613784,21.9167279 52.1613784,18.6360997 L52.1613784,13.8534909 L56.9434739,13.8534909"></path>
                <path d="M0.0746712559,8.25242096 L4.68729594,29.0298671 L10.0831957,29.0298671 C8.71136101,21.8036406 7.55642641,15.6626433 6.15438457,8.25242096 L0.0746712559,8.25242096 Z M11.5378516,8.25242096 L10.3691538,12.4901725 L12.4578894,23.5706434 L14.5714903,15.9426907 L18.2143433,29.0298671 L24.48055,29.0298671 L29.0558767,8.25242096 L23.0010287,8.25242096 L20.8128317,19.8563819 L17.605129,8.25242096 L11.5378516,8.25242096 Z"></path>
                <path d="M38.8110432,3.28616294 C38.8110432,5.07831885 37.3582147,6.53114734 35.5660588,6.53114734 C33.7739029,6.53114734 32.3210744,5.07831885 32.3210744,3.28616294 C32.3210744,1.49400703 33.7739029,0.0411785447 35.5660588,0.0411785447 C37.3582147,0.0411785447 38.8110432,1.49400703 38.8110432,3.28616294 Z"></path>
                <path d="M66.9909669,25.796194 C66.9909669,27.58835 65.5381384,29.0411784 63.7459825,29.0411784 C61.9538266,29.0411784 60.5009981,27.58835 60.5009981,25.796194 C60.5009981,24.0040381 61.9538266,22.5512096 63.7459825,22.5512096 C65.5381384,22.5512096 66.9909669,24.0040381 66.9909669,25.796194 Z"></path>
                <path d="M98.1720632,3.28616294 C98.1720632,5.07831558 96.7192347,6.53114734 94.9270788,6.53114734 C93.1349229,6.53114734 91.6820944,5.07831558 91.6820944,3.28616294 C91.6820944,1.49400703 93.1349229,0.0411785447 94.9270788,0.0411785447 C96.7192347,0.0411785447 98.1720632,1.49400703 98.1720632,3.28616294 Z"></path>
                <polyline points="38.811053 8.26502037 32.3210646 8.26502037 32.3210646 29.033169 38.811053 29.033169"></polyline>
                <polyline points="98.1720762 8.36337681 91.6820813 8.36337681 91.6820813 29.033169 98.1720762 29.033169"></polyline>
              </g>
            </g>
          </g>
        </g>
      </g>
    </g>
  </g>
</svg>
