<?xml version="1.0" encoding="UTF-8"?>
<svg width="111px" height="38px" viewBox="0 0 111 38" version="1.1" xmlns="http://www.w3.org/2000/svg" xmlns:xlink="http://www.w3.org/1999/xlink">
  <g stroke="none" stroke-width="1" fill="none" fill-rule="evenodd">
    <g transform="translate(-418.000000, -2083.000000)">
      <g transform="translate(418.000000, 2083.000000)">
        <g fill="#de6b2b">
          <polygon points="0 11.2972973 15.4166667 19.5135135 15.4166667 34.9189189 0 26.7027027"></polygon>
          <polygon points="9.25 22.5945946 30.8333333 11.2972973 30.8333333 26.7027027 9.25 38"></polygon>
          <polygon points="15.4256999 0 30.8333333 9.24324324 15.4603271 17.4594595 0 9.24324324"></polygon>
        </g>
        <path d="M47.3911947,18.4634185 C47.111164,18.6396053 46.8285446,18.7821072 46.5433282,18.8909285 C46.2581117,18.9997498 45.8665932,19.1007966 45.3687609,19.194072 L44.3731011,19.3806218 C43.4396655,19.5464447 42.7707133,19.7485384 42.3662245,19.9869088 C41.681705,20.3911021 41.3394504,21.0181105 41.3394504,21.8679529 C41.3394504,22.6245199 41.5494703,23.1712091 41.9695163,23.5080368 C42.3895624,23.8448646 42.9003514,24.013276 43.5018989,24.013276 C44.4560775,24.013276 45.3350496,23.733454 46.1388414,23.1738017 C46.9426332,22.6141494 47.3600801,21.5933175 47.3911947,20.1112753 L47.3911947,18.4634185 Z M44.699802,16.3958245 C45.5191511,16.2921852 46.1051324,16.162638 46.4577637,16.0071791 C47.0904256,15.7377168 47.4067518,15.3179839 47.4067518,14.7479677 C47.4067518,14.0535843 47.1656179,13.5742597 46.6833428,13.3099794 C46.2010677,13.0456992 45.493223,12.913561 44.5597873,12.913561 C43.5122651,12.913561 42.7707134,13.1726554 42.3351101,13.690852 C42.0239649,14.0743174 41.8165379,14.5925062 41.7128228,15.2454339 L37.4345974,15.2454339 C37.527941,13.7633917 37.9427951,12.5456481 38.6791721,11.5921664 C39.8511524,10.0997603 41.8631947,9.35356841 44.7153592,9.35356841 C46.571859,9.35356841 48.2209039,9.72148246 49.6625434,10.4573216 C51.1041829,11.1931607 51.8249919,12.5819067 51.8249919,14.6236011 L51.8249919,22.3965108 C51.8249919,22.9354352 51.8353632,23.5883531 51.8561062,24.355284 C51.8872208,24.9356641 51.9753772,25.3294876 52.1205783,25.5367663 C52.2657794,25.7440449 52.4835778,25.9150472 52.77398,26.0497783 L52.77398,26.7027027 L47.9512533,26.7027027 C47.8164237,26.360693 47.7230815,26.0394159 47.671224,25.7388619 C47.6193664,25.4383079 47.577881,25.0963033 47.5467665,24.7128378 C46.9348476,25.3761294 46.2295956,25.9409552 45.4309896,26.4073321 C44.4768109,26.9566205 43.3981903,27.2312606 42.1950955,27.2312606 C40.6601124,27.2312606 39.3922147,26.793391 38.3913642,25.9176388 C37.3905137,25.0418866 36.890096,23.8008245 36.890096,22.1944151 C36.890096,20.1112649 37.6938758,18.6033355 39.3014594,17.6705817 C40.1830375,17.1627491 41.4794565,16.8000169 43.1907552,16.5823744 L44.699802,16.3958245 Z M65.6248657,14.7635135 C65.0285041,13.7582122 64.0613755,13.255569 62.7234511,13.255569 C61.1158675,13.255569 60.0113185,14.0173066 59.4097711,15.5408045 C59.0986259,16.3491911 58.9430556,17.3752049 58.9430556,18.6188767 C58.9430556,20.5880236 59.4668088,21.9715877 60.5143311,22.7696104 C61.1366215,23.2359873 61.8729875,23.4691723 62.7234511,23.4691723 C63.9576605,23.4691723 64.8988606,22.9924386 65.5470798,22.0389569 C66.195299,21.0854752 66.5194038,19.8159127 66.5194038,18.2302312 C66.5194038,16.9243759 66.2212274,15.7688149 65.6248657,14.7635135 Z M69.0318889,11.5766206 C70.4061136,13.0379349 71.0932156,15.1832365 71.0932156,18.0125897 C71.0932156,20.997402 70.4216706,23.2722508 69.0785604,24.8372044 C67.7354502,26.402158 66.0060273,27.1846231 63.8902398,27.1846231 C62.5419439,27.1846231 61.4218379,26.8478004 60.5298883,26.1741448 C60.0424274,25.8010433 59.5653452,25.2569451 59.0986274,24.5418338 L59.0986274,33.3718592 L54.7115018,33.3718592 L54.7115018,9.75775971 L58.9586128,9.75775971 L58.9586128,12.2606366 C59.4357021,11.5247975 59.9438983,10.944426 60.4832167,10.5195049 C61.4685099,9.76293787 62.6404727,9.38466005 63.9991401,9.38466005 C65.980098,9.38466005 67.6576641,10.1153062 69.0318889,11.5766206 Z M77.93125,7.73680321 L73.4352241,7.73680321 L73.4352241,3.64825274 L77.93125,3.64825274 L77.93125,7.73680321 Z M73.4352241,9.75775971 L77.93125,9.75775971 L77.93125,26.7027027 L73.4352241,26.7027027 L73.4352241,9.75775971 Z M81.2222467,22.0700486 L85.9360732,22.0700486 L85.9360732,26.7027027 L81.2222467,26.7027027 L81.2222467,22.0700486 Z M98.5769369,18.4634185 C98.2969062,18.6396053 98.0142869,18.7821072 97.7290705,18.8909285 C97.443854,18.9997498 97.0523355,19.1007966 96.5545031,19.194072 L95.5588434,19.3806218 C94.6254078,19.5464447 93.9564556,19.7485384 93.5519668,19.9869088 C92.8674473,20.3911021 92.5251927,21.0181105 92.5251927,21.8679529 C92.5251927,22.6245199 92.7352126,23.1712091 93.1552586,23.5080368 C93.5753047,23.8448646 94.0860937,24.013276 94.6876412,24.013276 C95.6418198,24.013276 96.5207919,23.733454 97.3245837,23.1738017 C98.1283755,22.6141494 98.5458224,21.5933175 98.5769369,20.1112753 L98.5769369,18.4634185 Z M95.8855443,16.3958245 C96.7048933,16.2921852 97.2908747,16.162638 97.643506,16.0071791 C98.2761679,15.7377168 98.5924941,15.3179839 98.5924941,14.7479677 C98.5924941,14.0535843 98.3513602,13.5742597 97.8690851,13.3099794 C97.38681,13.0456992 96.6789653,12.913561 95.7455296,12.913561 C94.6980074,12.913561 93.9564557,13.1726554 93.5208524,13.690852 C93.2097072,14.0743174 93.0022802,14.5925062 92.8985651,15.2454339 L88.6203397,15.2454339 C88.7136833,13.7633917 89.1285374,12.5456481 89.8649144,11.5921664 C91.0368947,10.0997603 93.0489369,9.35356841 95.9011014,9.35356841 C97.7576012,9.35356841 99.4066462,9.72148246 100.848286,10.4573216 C102.289925,11.1931607 103.010734,12.5819067 103.010734,14.6236011 L103.010734,22.3965108 C103.010734,22.9354352 103.021105,23.5883531 103.041849,24.355284 C103.072963,24.9356641 103.16112,25.3294876 103.306321,25.5367663 C103.451522,25.7440449 103.66932,25.9150472 103.959722,26.0497783 L103.959722,26.7027027 L99.1369955,26.7027027 C99.0021659,26.360693 98.9088238,26.0394159 98.8569662,25.7388619 C98.8051087,25.4383079 98.7636233,25.0963033 98.7325088,24.7128378 C98.1205898,25.3761294 97.4153379,25.9409552 96.6167319,26.4073321 C95.6625532,26.9566205 94.5839326,27.2312606 93.3808378,27.2312606 C91.8458547,27.2312606 90.5779569,26.793391 89.5771065,25.9176388 C88.576256,25.0418866 88.0758383,23.8008245 88.0758383,22.1944151 C88.0758383,20.1112649 88.8796181,18.6033355 90.4872017,17.6705817 C91.3687798,17.1627491 92.6651988,16.8000169 94.3764975,16.5823744 L95.8855443,16.3958245 Z M110.579956,7.73680321 L106.08393,7.73680321 L106.08393,3.64825274 L110.579956,3.64825274 L110.579956,7.73680321 Z M106.08393,9.75775971 L110.579956,9.75775971 L110.579956,26.7027027 L106.08393,26.7027027 L106.08393,9.75775971 Z" fill="#46515a"></path>
      </g>
    </g>
  </g>
</svg>
