<svg xmlns="http://www.w3.org/2000/svg" width="18" height="17" viewBox="0 0 18 17">
    <path fill="#767E8C" fill-rule="evenodd" d="M8.571.286a8.574 8.574 0 0 1 2.712 16.707c-.435.078-.591-.19-.591-.413 0-.279.011-1.205.011-2.355 0-.803-.268-1.317-.58-1.584 1.908-.212 3.917-.938 3.917-4.23a3.32 3.32 0 0 0-.882-2.3c.09-.223.38-1.093-.089-2.276-.714-.223-2.355.882-2.355.882a8.07 8.07 0 0 0-4.285 0s-1.641-1.105-2.355-.882c-.47 1.183-.179 2.053-.09 2.277a3.32 3.32 0 0 0-.881 2.299c0 3.281 1.997 4.018 3.906 4.23-.246.223-.469.602-.547 1.15-.491.222-1.741.602-2.489-.715-.469-.815-1.317-.882-1.317-.882-.837-.011-.056.525-.056.525.558.256.95 1.25.95 1.25.501 1.529 2.89 1.015 2.89 1.015 0 .715.01 1.384.01 1.596 0 .224-.155.491-.59.413A8.574 8.574 0 0 1 8.571.285z"/>
</svg>
