<svg xmlns="http://www.w3.org/2000/svg" width="18" height="15" viewBox="0 0 18 15">
    <path fill="#767E8C" fill-rule="evenodd" d="M18.08 2.41c-.647.28-1.35.48-2.076.559A3.595 3.595 0 0 0 17.59.982a7.097 7.097 0 0 1-2.288.87A3.596 3.596 0 0 0 12.667.715 3.603 3.603 0 0 0 9.063 4.32c0 .28.033.558.089.826a10.247 10.247 0 0 1-7.433-3.772 3.578 3.578 0 0 0-.491 1.819c0 1.25.636 2.355 1.607 3.002a3.631 3.631 0 0 1-1.63-.457v.044A3.605 3.605 0 0 0 4.096 9.32a3.811 3.811 0 0 1-.949.123c-.234 0-.457-.022-.68-.056a3.611 3.611 0 0 0 3.37 2.5 7.22 7.22 0 0 1-4.475 1.54c-.302 0-.58-.01-.87-.044A10.187 10.187 0 0 0 6.026 15c6.63 0 10.257-5.491 10.257-10.257 0-.156 0-.312-.012-.468A7.75 7.75 0 0 0 18.08 2.41z"/>
</svg>
