<svg xmlns="http://www.w3.org/2000/svg" width="94" height="44" viewBox="0 0 94 44">
    <path fill="#FFF" fill-rule="evenodd" d="M15.48 21h4.128V4.992h-5.736l-3.36 9.072-3.336-9.072H1.44V21h4.128V10.2L9.6 21h1.824l4.056-10.8V21zm18.072 0h4.488L31.992 4.992h-5.184L20.784 21h4.488l.816-2.424h6.648L33.552 21zM29.4 8.592l2.256 6.504h-4.488L29.4 8.592zM48.624 21h5.064l-6.552-8.52 6.216-7.488h-5.088l-4.92 6.576V4.992h-4.128V21h4.128v-4.68l1.08-1.344 4.2 6.024zm6.288 0h11.736v-3.48H59.04v-2.88h7.44v-3.504h-7.44V8.472h7.608v-3.48H54.912V21zM.624 35.008c0 5.088 3.888 8.28 8.664 8.28 3.024 0 5.352-1.224 7.08-3.12v-6.264H8.64v3.432h3.672v1.344c-.648.528-1.776.96-3.024.96-2.616 0-4.464-2.016-4.464-4.632 0-2.616 1.848-4.632 4.464-4.632 1.512 0 2.736.84 3.384 1.896l3.456-1.824c-1.176-1.992-3.336-3.72-6.84-3.72-4.776 0-8.664 3.192-8.664 8.28zM27.72 43h4.728l-3.264-5.88c1.488-.528 3.192-2.016 3.192-4.8 0-2.976-2.016-5.328-5.568-5.328h-8.016V43h4.128v-5.424h2.112L27.72 43zm.456-10.728c0 1.104-.912 1.8-1.992 1.8H22.92v-3.6h3.264c1.08 0 1.992.696 1.992 1.8zM34.656 43h11.736v-3.48h-7.608v-2.88h7.44v-3.504h-7.44v-2.664h7.608v-3.48H34.656V43zm25.2 0h4.488l-6.048-16.008h-5.184L47.088 43h4.488l.816-2.424h6.648L59.856 43zm-4.152-12.408l2.256 6.504h-4.488l2.232-6.504zM69.096 43h4.128V30.592h4.464v-3.6h-13.08v3.6h4.488V43zM94 3.01A3.005 3.005 0 0 0 90.999 0H75A3 3 0 0 0 72 3.001V20.01c0 1.1.63 1.36 1.414.577L78 16h12.99A3.003 3.003 0 0 0 94 12.99V3.01zM75.78 9.997V12h2.041V9.998H75.78zm3.458-2.652c.026-.433.134-.793.325-1.079.19-.286.433-.516.728-.689.295-.173.626-.297.995-.37.368-.074.738-.111 1.111-.111.338 0 .68.024 1.027.072.347.047.663.14.949.279.286.139.52.331.702.578.182.248.273.575.273.982v3.497c0 .303.017.594.052.871.035.277.095.485.182.624H83.71a2.649 2.649 0 0 1-.13-.65 2.406 2.406 0 0 1-1.04.637 4.174 4.174 0 0 1-1.222.182c-.32 0-.62-.039-.897-.117-.277-.078-.52-.2-.728-.364a1.694 1.694 0 0 1-.487-.624 2.11 2.11 0 0 1-.176-.897c0-.381.067-.695.202-.943.134-.247.307-.444.52-.591a2.33 2.33 0 0 1 .728-.332c.273-.073.548-.132.825-.175.277-.043.55-.078.819-.104.269-.026.507-.065.715-.117.208-.052.373-.128.494-.227.121-.1.178-.245.169-.436 0-.2-.032-.357-.097-.475a.717.717 0 0 0-.26-.272 1.023 1.023 0 0 0-.377-.13 3.085 3.085 0 0 0-.462-.033c-.364 0-.65.078-.858.234-.208.156-.33.416-.364.78h-1.846zm4.264 1.365a.828.828 0 0 1-.293.162 2.987 2.987 0 0 1-.376.098 5.777 5.777 0 0 1-.423.065 7.76 7.76 0 0 0-.442.065c-.139.026-.275.06-.41.104a1.21 1.21 0 0 0-.35.175.834.834 0 0 0-.241.28.9.9 0 0 0-.091.429c0 .165.03.303.091.416.06.113.143.201.247.267.104.065.225.11.364.136.139.026.282.039.429.039.364 0 .646-.06.845-.182.2-.121.347-.266.442-.435.095-.17.154-.34.176-.514.021-.173.032-.312.032-.416v-.689zm5.174-4.472V2.718H86.83v1.521h1.846zm-1.846 1.04V12h1.846V5.279H86.83z"/>
</svg>
