<svg xmlns="http://www.w3.org/2000/svg" width="94" height="44" viewBox="0 0 94 44">
    <path fill="#767E8C" fill-rule="evenodd" d="M14.856 21h4.128V4.992h-5.736l-3.36 9.072-3.336-9.072H.816V21h4.128V10.2L8.976 21H10.8l4.056-10.8V21zm18.072 0h4.488L31.368 4.992h-5.184L20.16 21h4.488l.816-2.424h6.648L32.928 21zM28.776 8.592l2.256 6.504h-4.488l2.232-6.504zM48 21h5.064l-6.552-8.52 6.216-7.488H47.64l-4.92 6.576V4.992h-4.128V21h4.128v-4.68l1.08-1.344L48 21zm6.288 0h11.736v-3.48h-7.608v-2.88h7.44v-3.504h-7.44V8.472h7.608v-3.48H54.288V21zM0 35.008c0 5.088 3.888 8.28 8.664 8.28 3.024 0 5.352-1.224 7.08-3.12v-6.264H8.016v3.432h3.672v1.344c-.648.528-1.776.96-3.024.96-2.616 0-4.464-2.016-4.464-4.632 0-2.616 1.848-4.632 4.464-4.632 1.512 0 2.736.84 3.384 1.896l3.456-1.824c-1.176-1.992-3.336-3.72-6.84-3.72C3.888 26.728 0 29.92 0 35.008zM27.096 43h4.728l-3.264-5.88c1.488-.528 3.192-2.016 3.192-4.8 0-2.976-2.016-5.328-5.568-5.328h-8.016V43h4.128v-5.424h2.112L27.096 43zm.456-10.728c0 1.104-.912 1.8-1.992 1.8h-3.264v-3.6h3.264c1.08 0 1.992.696 1.992 1.8zM34.032 43h11.736v-3.48H38.16v-2.88h7.44v-3.504h-7.44v-2.664h7.608v-3.48H34.032V43zm25.2 0h4.488l-6.048-16.008h-5.184L46.464 43h4.488l.816-2.424h6.648L59.232 43zM55.08 30.592l2.256 6.504h-4.488l2.232-6.504zM68.472 43H72.6V30.592h4.464v-3.6h-13.08v3.6h4.488V43zM93.376 3.01A3.005 3.005 0 0 0 90.375 0H74.377a3 3 0 0 0-3.001 3.001V20.01c0 1.1.63 1.36 1.414.577L77.376 16h12.99a3.003 3.003 0 0 0 3.01-3.01V3.01zm-18.22 6.988V12h2.041V9.998h-2.041zm3.458-2.652c.026-.433.134-.793.325-1.079.19-.286.433-.516.728-.689.295-.173.626-.297.994-.37.369-.074.74-.111 1.112-.111.338 0 .68.024 1.027.071.347.048.663.141.949.28.286.139.52.331.702.578.182.248.273.575.273.982v3.497c0 .303.017.594.052.871.035.277.095.485.182.624h-1.872a2.65 2.65 0 0 1-.13-.65 2.406 2.406 0 0 1-1.04.637 4.174 4.174 0 0 1-1.222.182c-.32 0-.62-.039-.897-.117-.277-.078-.52-.2-.728-.364a1.694 1.694 0 0 1-.487-.624 2.11 2.11 0 0 1-.176-.897c0-.381.067-.696.201-.942.135-.248.308-.445.52-.592a2.33 2.33 0 0 1 .729-.332 7.77 7.77 0 0 1 .825-.175c.277-.043.55-.078.819-.104.269-.026.507-.065.715-.117.208-.052.373-.128.494-.228s.178-.244.169-.435c0-.2-.033-.357-.098-.475a.717.717 0 0 0-.26-.273 1.023 1.023 0 0 0-.377-.13 3.085 3.085 0 0 0-.461-.032c-.364 0-.65.078-.858.234-.208.156-.33.416-.364.78h-1.846zm4.264 1.365a.828.828 0 0 1-.293.162 2.987 2.987 0 0 1-.377.098 5.775 5.775 0 0 1-.422.065 7.758 7.758 0 0 0-.442.065c-.139.026-.275.06-.41.104a1.21 1.21 0 0 0-.35.176.834.834 0 0 0-.241.279.9.9 0 0 0-.091.429c0 .165.03.303.091.416.06.113.143.202.247.266.104.066.225.111.364.137.139.026.282.039.429.039.364 0 .646-.06.845-.182.2-.121.347-.267.442-.436.095-.169.154-.34.175-.513.022-.173.033-.312.033-.416v-.689zm5.174-4.472V2.718h-1.846v1.521h1.846zm-1.846 1.04V12h1.846V5.279h-1.846z"/>
</svg>
