<svg xmlns="http://www.w3.org/2000/svg" xmlns:xlink="http://www.w3.org/1999/xlink" width="268" height="553" viewBox="0 0 268 553">
    <defs>
        <filter id="e" width="200%" height="200%" x="-50%" y="-50%" filterUnits="objectBoundingBox">
            <feGaussianBlur in="SourceGraphic" stdDeviation="5"/>
        </filter>
        <rect id="a" width="262.604" height="542" x="2.698" rx="36"/>
        <mask id="f" width="262.604" height="542" x="0" y="0" fill="#fff">
            <use xlink:href="#a"/>
        </mask>
        <ellipse id="b" cx="134.899" cy="17.106" rx="3.597" ry="3.601"/>
        <mask id="g" width="7.195" height="7.203" x="0" y="0" fill="#fff">
            <use xlink:href="#b"/>
        </mask>
        <ellipse id="c" cx="92.631" cy="34.213" rx="4.497" ry="4.502"/>
        <mask id="h" width="8.993" height="9.003" x="0" y="0" fill="#fff">
            <use xlink:href="#c"/>
        </mask>
        <rect id="d" width="42.268" height="5.402" x="113.315" y="31.512" rx="2.701"/>
        <mask id="i" width="42.268" height="5.402" x="0" y="0" fill="#fff">
            <use xlink:href="#d"/>
        </mask>
    </defs>
    <g fill="none" fill-rule="evenodd">
        <path fill="#000" fill-opacity=".733" d="M28 538.5c0-.828.666-1.5 1.496-1.5h209.008c.826 0 1.496.666 1.496 1.5 0 .828-.666 1.5-1.496 1.5H29.496A1.494 1.494 0 0 1 28 538.5z" filter="url(#e)" style="mix-blend-mode:multiply"/>
        <g>
            <rect width="5.396" height="22.508" y="68.425" fill="#FFF" rx="2.698"/>
            <rect width="5.396" height="39.615" y="116.143" fill="#FFF" rx="2.698"/>
            <rect width="5.396" height="39.615" y="165.661" fill="#FFF" rx="2.698"/>
            <rect width="5.396" height="39.615" x="262.604" y="116.143" fill="#FFF" rx="2.698"/>
            <use fill="#FFF" stroke="#F3F3F3" stroke-width="1.8" mask="url(#f)" xlink:href="#a"/>
            <rect width="40.47" height="40.515" x="114.215" y="486.179" fill="#F9F9F9" rx="20.235"/>
            <use fill="#E0E0E0" stroke="#F9F9F9" stroke-width="1.8" mask="url(#g)" xlink:href="#b"/>
            <use fill="#E0E0E0" stroke="#F9F9F9" stroke-width="1.8" mask="url(#h)" xlink:href="#c"/>
            <use fill="#E0E0E0" stroke="#F9F9F9" stroke-width="1.8" mask="url(#i)" xlink:href="#d"/>
        </g>
    </g>
</svg>
