<svg xmlns="http://www.w3.org/2000/svg" xmlns:xlink="http://www.w3.org/1999/xlink" width="80" height="67" viewBox="0 0 80 67">
    <defs>
        <rect id="a" width="39" height="45" rx="3"/>
        <mask id="d" width="39" height="45" x="0" y="0" fill="#fff">
            <use xlink:href="#a"/>
        </mask>
        <path id="b" d="M6 41.003C6 39.897 6.897 39 8.006 39h9.988c1.108 0 2.006.894 2.006 2.003v8.994c0 1.106-.776 1.56-1.73 1.014L13 48l-5.27 3.011c-.955.546-1.73.095-1.73-1.014v-8.994z"/>
        <mask id="e" width="14" height="12.243" x="0" y="0" fill="#fff">
            <use xlink:href="#b"/>
        </mask>
        <path id="c" d="M0 3.008A3.007 3.007 0 0 1 3.007 0h29.986A3.008 3.008 0 0 1 36 3v29c0 1.657-.946 2.054-2.121.879L27 26H2.993A2.998 2.998 0 0 1 0 22.992V3.008z"/>
        <mask id="f" width="36" height="33.555" x="0" y="0" fill="#fff">
            <use xlink:href="#c"/>
        </mask>
    </defs>
    <g fill="none" fill-rule="evenodd">
        <g fill="#2AA2FF" transform="translate(0 31)">
            <rect width="14" height="2" x="7" y="5" rx="1"/>
            <rect width="14" height="2" x="12" y="10" rx="1"/>
            <rect width="14" height="2" x="14" rx="1"/>
            <rect width="5" height="2" y="5" rx="1"/>
        </g>
        <g transform="translate(18 15)">
            <use fill="#FFF" stroke="#2AA2FF" stroke-linecap="round" stroke-linejoin="round" stroke-width="4" mask="url(#d)" xlink:href="#a"/>
            <path fill="#2AA2FF" d="M6 2h2v34H6z"/>
            <path fill="#2AA2FF" d="M2 34h35v2H2z"/>
            <use fill="#FFF" stroke="#2AA2FF" stroke-linecap="round" stroke-linejoin="round" stroke-width="4" mask="url(#e)" xlink:href="#b"/>
        </g>
        <g transform="translate(44)">
            <use fill="#FFF" stroke="#2AA2FF" stroke-width="4" mask="url(#f)" transform="matrix(-1 0 0 1 36 0)" xlink:href="#c"/>
            <rect width="22" height="2" x="8" y="12" fill="#2AA2FF" rx="1"/>
            <rect width="5" height="2" x="23" y="7" fill="#2AA2FF" rx="1"/>
            <rect width="13" height="2" x="8" y="7" fill="#2AA2FF" rx="1"/>
            <rect width="17" height="2" x="8" y="17" fill="#2AA2FF" rx="1"/>
        </g>
    </g>
</svg>
