<svg xmlns="http://www.w3.org/2000/svg" xmlns:xlink="http://www.w3.org/1999/xlink" width="98" height="56" viewBox="0 0 98 56">
    <defs>
        <path id="a" d="M47.947 46.25C56.584 46.458 64 30.837 64 16c0-8.837-7.163-16-16-16S32 7.163 32 16c0 14.837 7.31 30.042 15.947 30.25z"/>
        <mask id="b" width="32" height="46.252" x="0" y="0" fill="#fff">
            <use xlink:href="#a"/>
        </mask>
    </defs>
    <g fill="none" fill-rule="evenodd">
        <rect width="32" height="2" x="54" y="24" fill="#2AA2FF" rx="1" transform="matrix(-1 0 0 1 140 0)"/>
        <rect width="20" height="2" x="69" y="29" fill="#2AA2FF" rx="1" transform="matrix(-1 0 0 1 158 0)"/>
        <g stroke="#2AA2FF" stroke-linecap="round" stroke-linejoin="round" stroke-width="2">
            <path d="M17 54.78l3.4-3.4c2.347-2.347 6.933-4.25 10.26-4.25h3.268c2.756 0 5.86-2.057 6.937-4.603L44.05 35M79.049 54.78l-3.4-3.4c-2.347-2.347-6.933-4.25-10.26-4.25h-3.268c-2.756 0-5.86-2.057-6.937-4.603L52 35"/>
        </g>
        <rect width="15" height="2" x="82" y="19" fill="#2AA2FF" rx="1" transform="matrix(-1 0 0 1 179 0)"/>
        <rect width="6" height="2" x="74" y="19" fill="#2AA2FF" rx="1" transform="matrix(-1 0 0 1 154 0)"/>
        <circle cx="96" cy="20" r="2" fill="#2AA2FF"/>
        <circle cx="89" cy="30" r="2" fill="#2AA2FF"/>
        <use fill="#FFF" stroke="#2AA2FF" stroke-width="4" mask="url(#b)" xlink:href="#a"/>
        <g fill="#2AA2FF" transform="translate(10 33)">
            <rect width="18" height="2" y="1" rx="1" transform="matrix(-1 0 0 1 18 0)"/>
            <circle cx="18" cy="2" r="2"/>
        </g>
        <rect width="20" height="2" y="18" fill="#2AA2FF" rx="1" transform="matrix(-1 0 0 1 20 0)"/>
        <rect width="26" height="2" x="16" y="13" fill="#2AA2FF" rx="1" transform="matrix(-1 0 0 1 58 0)"/>
        <rect width="7" height="2" x="7" y="13" fill="#2AA2FF" rx="1" transform="matrix(-1 0 0 1 21 0)"/>
        <circle cx="41" cy="14" r="2" fill="#2AA2FF"/>
    </g>
</svg>
