<svg xmlns="http://www.w3.org/2000/svg" xmlns:xlink="http://www.w3.org/1999/xlink" width="86" height="55" viewBox="0 0 86 55">
    <defs>
        <rect id="a" width="56" height="48" x="8" rx="3"/>
        <mask id="d" width="56" height="48" x="0" y="0" fill="#fff">
            <use xlink:href="#a"/>
        </mask>
        <path id="b" d="M0 33a3 3 0 0 1 3.001-3H19a2.995 2.995 0 0 1 2.99 3.009l-.067 19.77c-.005 1.661-.945 2.036-2.092.842L15.388 49H3.003A2.997 2.997 0 0 1 0 46V33z"/>
        <mask id="e" width="21.99" height="24.319" x="0" y="0" fill="#fff">
            <use xlink:href="#b"/>
        </mask>
        <path id="c" d="M68 9.003A3.006 3.006 0 0 1 70.993 6h12.014A2.992 2.992 0 0 1 86 9v14.003c0 1.103-.688 1.423-1.53.722L80 20h-9.003A2.999 2.999 0 0 1 68 16.997V9.003z"/>
        <mask id="f" width="18" height="18.096" x="0" y="0" fill="#fff">
            <use xlink:href="#c"/>
        </mask>
    </defs>
    <g fill="none" fill-rule="evenodd">
        <use fill="#FFF" stroke="#2AA2FF" stroke-width="4" mask="url(#d)" xlink:href="#a"/>
        <use fill="#FFF" stroke="#2AA2FF" stroke-width="4" mask="url(#e)" xlink:href="#b"/>
        <use fill="#FFF" stroke="#2AA2FF" stroke-width="4" mask="url(#f)" transform="matrix(-1 0 0 1 154 0)" xlink:href="#c"/>
        <path stroke="#2AA2FF" stroke-linecap="round" stroke-width="2" d="M7.628 39.678l2.534 2.678L15.007 37"/>
        <rect width="14" height="2" x="22" y="12" fill="#2AA2FF" rx="1"/>
        <rect width="14" height="2" x="15" y="22" fill="#2AA2FF" rx="1"/>
        <rect width="14" height="2" x="38" y="12" fill="#2AA2FF" rx="1"/>
        <rect width="14" height="2" x="38" y="22" fill="#2AA2FF" rx="1"/>
        <rect width="10" height="2" x="45" y="17" fill="#2AA2FF" rx="1"/>
        <rect width="5" height="2" x="15" y="12" fill="#2AA2FF" rx="1"/>
        <rect width="5" height="2" x="31" y="22" fill="#2AA2FF" rx="1"/>
        <rect width="28" height="2" x="15" y="17" fill="#2AA2FF" rx="1"/>
        <path fill="#2AA2FF" d="M8 6h55v2H8z"/>
    </g>
</svg>
