<svg xmlns="http://www.w3.org/2000/svg" width="203" height="29" viewBox="0 0 203 29">
    <defs>
        <linearGradient id="a" x1="100%" x2="0%" y1="50%" y2="50%">
            <stop offset="0%" stop-color="#3FBDF0"/>
            <stop offset="100%" stop-color="#3A77F5"/>
        </linearGradient>
    </defs>
    <path fill="url(#a)" fill-rule="evenodd" d="M121.045 1285h-2.988v-12.094H104.52V1285h-2.988v-25.7h2.988v10.934h13.536v-10.933h2.988V1285zm22.42-9.65c0 3.14-.791 5.592-2.373 7.356-1.582 1.764-3.768 2.646-6.557 2.646-1.722 0-3.252-.405-4.588-1.213-1.336-.809-2.367-1.97-3.093-3.48-.727-1.513-1.09-3.282-1.09-5.31 0-3.14.785-5.586 2.355-7.338 1.57-1.752 3.75-2.628 6.54-2.628 2.695 0 4.836.896 6.424 2.69 1.588 1.792 2.382 4.218 2.382 7.277zm-14.678 0c0 2.46.492 4.336 1.477 5.625.984 1.289 2.431 1.933 4.342 1.933 1.91 0 3.36-.641 4.35-1.925.99-1.283 1.486-3.16 1.486-5.633 0-2.45-.496-4.31-1.486-5.581-.99-1.272-2.452-1.908-4.386-1.908-1.91 0-3.351.627-4.324 1.881-.972 1.254-1.459 3.123-1.459 5.608zm33.987 9.65l-3.533-11.303c-.223-.691-.64-2.261-1.248-4.71h-.141c-.469 2.05-.879 3.632-1.23 4.745l-3.64 11.268h-3.374l-5.256-19.266h3.059l2.838 11.057c.65 2.531 1.023 4.236 1.117 5.115h.14c.13-.668.337-1.532.624-2.593.287-1.06.536-1.9.747-2.522l3.534-11.057h3.164l3.445 11.057c.656 2.016 1.101 3.709 1.336 5.08h.14c.047-.422.173-1.072.378-1.951.205-.879 1.427-5.607 3.665-14.186h3.024L166.237 1285h-3.463zm22.902 0h-2.917v-19.266h2.917V1285zm-3.164-24.486c0-.668.164-1.158.493-1.468.328-.31.738-.466 1.23-.466.469 0 .873.158 1.213.475.34.316.51.802.51 1.459 0 .656-.17 1.145-.51 1.467-.34.323-.744.484-1.213.484-.492 0-.902-.161-1.23-.484-.329-.322-.493-.811-.493-1.467zm14.756 22.43c.516 0 1.014-.039 1.495-.115.48-.076.86-.155 1.142-.237v2.232c-.316.153-.782.279-1.397.378-.616.1-1.17.15-1.661.15-3.727 0-5.59-1.963-5.59-5.89v-11.46h-2.76v-1.406l2.76-1.213 1.23-4.113h1.688v4.464h5.59v2.268h-5.59v11.338c0 1.16.275 2.05.826 2.672.55.62 1.307.931 2.267.931zm29.934 2.056l-3.533-11.303c-.222-.691-.638-2.261-1.248-4.71h-.14c-.47 2.05-.88 3.632-1.23 4.745L217.41 1285h-3.375l-5.255-19.266h3.058l2.839 11.057c.65 2.531 1.022 4.236 1.116 5.115h.14c.13-.668.338-1.532.625-2.593.287-1.06.536-1.9.747-2.522l3.533-11.057h3.164l3.446 11.057c.656 2.016 1.101 3.709 1.335 5.08h.141c.047-.422.173-1.072.378-1.951.205-.879 1.427-5.607 3.665-14.186h3.023L230.665 1285h-3.463zm28.08-9.65c0 3.14-.79 5.592-2.372 7.356-1.582 1.764-3.768 2.646-6.557 2.646-1.723 0-3.252-.405-4.588-1.213-1.336-.809-2.367-1.97-3.094-3.48-.726-1.513-1.09-3.282-1.09-5.31 0-3.14.786-5.586 2.356-7.338 1.57-1.752 3.75-2.628 6.539-2.628 2.695 0 4.837.896 6.425 2.69 1.588 1.792 2.382 4.218 2.382 7.277zm-14.677 0c0 2.46.492 4.336 1.476 5.625.985 1.289 2.432 1.933 4.342 1.933 1.91 0 3.36-.641 4.35-1.925.991-1.283 1.486-3.16 1.486-5.633 0-2.45-.495-4.31-1.485-5.581-.99-1.272-2.452-1.908-4.386-1.908-1.91 0-3.351.627-4.324 1.881-.973 1.254-1.46 3.123-1.46 5.608zm27.764-9.967c.855 0 1.623.07 2.303.21l-.405 2.708c-.797-.176-1.5-.264-2.11-.264-1.558 0-2.89.633-3.998 1.899-1.108 1.265-1.661 2.841-1.661 4.728V1285h-2.918v-19.266h2.408l.334 3.569h.14c.715-1.254 1.577-2.221 2.585-2.9a5.817 5.817 0 0 1 3.322-1.02zm7.97 9.756c.505-.715 1.272-1.653 2.303-2.813l6.223-6.592h3.463l-7.805 8.21 8.35 11.056h-3.533l-6.803-9.105-2.197 1.898V1285h-2.883v-27.352h2.883v14.502c0 .645-.047 1.641-.141 2.989h.14zm27.624 4.605c0 1.793-.668 3.176-2.004 4.149-1.336.972-3.21 1.459-5.625 1.459-2.555 0-4.547-.405-5.977-1.213v-2.707c.926.468 1.92.838 2.98 1.107 1.06.27 2.083.404 3.067.404 1.524 0 2.696-.243 3.516-.73.82-.485 1.23-1.227 1.23-2.223 0-.75-.325-1.391-.975-1.925-.65-.533-1.92-1.163-3.806-1.89-1.793-.667-3.067-1.25-3.823-1.748-.756-.498-1.318-1.064-1.688-1.697-.369-.632-.553-1.388-.553-2.267 0-1.57.638-2.81 1.916-3.718 1.277-.908 3.029-1.362 5.256-1.362 2.074 0 4.101.422 6.082 1.265l-1.038 2.373c-1.933-.796-3.685-1.195-5.255-1.195-1.383 0-2.426.217-3.13.65-.702.434-1.054 1.032-1.054 1.794 0 .515.132.955.396 1.318.263.363.688.709 1.274 1.037.586.328 1.71.803 3.375 1.424 2.285.832 3.829 1.67 4.632 2.514.803.843 1.204 1.904 1.204 3.181z" transform="translate(-101 -1257)"/>
</svg>
