<svg xmlns="http://www.w3.org/2000/svg" width="188" height="36" viewBox="0 0 188 36">
    <defs>
        <linearGradient id="a" x1="100%" x2="0%" y1="50%" y2="50%">
            <stop offset="0%" stop-color="#3FBDF0"/>
            <stop offset="100%" stop-color="#3A77F5"/>
        </linearGradient>
    </defs>
    <path fill="url(#a)" fill-rule="evenodd" d="M101.533 1964v-25.7h2.988v25.7h-2.988zm21.963 0v-12.463c0-1.57-.357-2.742-1.072-3.516-.715-.773-1.834-1.16-3.357-1.16-2.016 0-3.493.545-4.43 1.635-.938 1.09-1.406 2.889-1.406 5.397V1964h-2.918v-19.266h2.373l.474 2.637h.141c.598-.95 1.436-1.684 2.514-2.206 1.078-.521 2.279-.782 3.603-.782 2.32 0 4.067.56 5.238 1.679 1.172 1.119 1.758 2.909 1.758 5.37V1964h-2.918zm14.317-2.057c.515 0 1.014-.038 1.494-.114.48-.076.861-.155 1.143-.237v2.232c-.317.153-.783.279-1.398.378-.615.1-1.169.15-1.661.15-3.727 0-5.59-1.963-5.59-5.89v-11.46h-2.76v-1.406l2.76-1.213 1.23-4.113h1.688v4.464h5.59v2.268h-5.59v11.338c0 1.16.275 2.05.826 2.672.551.62 1.307.931 2.268.931zm13.807 2.409c-2.848 0-5.095-.868-6.742-2.602-1.646-1.734-2.47-4.143-2.47-7.225 0-3.105.765-5.572 2.295-7.4 1.529-1.828 3.583-2.742 6.16-2.742 2.415 0 4.325.794 5.731 2.382 1.407 1.588 2.11 3.682 2.11 6.284v1.846h-13.272c.059 2.261.63 3.978 1.714 5.15 1.084 1.172 2.61 1.758 4.58 1.758 2.073 0 4.124-.434 6.151-1.301v2.602c-1.03.445-2.006.764-2.926.958-.92.193-2.03.29-3.331.29zm-.791-17.526c-1.547 0-2.78.504-3.7 1.512-.92 1.008-1.462 2.402-1.627 4.183h10.073c0-1.84-.41-3.249-1.23-4.227-.821-.979-1.993-1.468-3.516-1.468zm27.799-2.092v1.846l-3.569.422c.328.41.621.946.88 1.608.257.662.386 1.41.386 2.242 0 1.886-.645 3.392-1.934 4.517-1.289 1.125-3.058 1.688-5.308 1.688a8.84 8.84 0 0 1-1.617-.141c-1.243.656-1.864 1.482-1.864 2.479 0 .527.217.917.65 1.168.434.252 1.178.378 2.233.378h3.41c2.086 0 3.689.44 4.808 1.319 1.119.879 1.679 2.156 1.679 3.832 0 2.133-.856 3.759-2.567 4.878-1.71 1.119-4.207 1.678-7.488 1.678-2.52 0-4.462-.468-5.827-1.406-1.366-.937-2.048-2.262-2.048-3.972 0-1.172.375-2.186 1.125-3.041.75-.856 1.805-1.436 3.164-1.74a3.053 3.053 0 0 1-1.24-1.038c-.333-.469-.5-1.014-.5-1.635 0-.703.187-1.318.562-1.845.375-.528.967-1.037 1.776-1.53-.996-.41-1.808-1.107-2.435-2.091-.627-.985-.94-2.11-.94-3.375 0-2.11.632-3.736 1.898-4.878 1.266-1.143 3.059-1.714 5.379-1.714 1.008 0 1.916.117 2.725.351h6.662zm-15.364 22.5c0 1.043.44 1.834 1.319 2.373.879.54 2.138.809 3.779.809 2.45 0 4.263-.366 5.44-1.099 1.178-.732 1.767-1.725 1.767-2.98 0-1.042-.322-1.766-.967-2.17-.644-.404-1.857-.606-3.638-.606h-3.498c-1.325 0-2.356.316-3.094.949s-1.108 1.54-1.108 2.724zm1.582-16.33c0 1.348.381 2.367 1.143 3.059.762.691 1.822 1.037 3.182 1.037 2.847 0 4.271-1.383 4.271-4.148 0-2.895-1.441-4.342-4.324-4.342-1.371 0-2.426.369-3.164 1.107s-1.108 1.834-1.108 3.287zm25.708-6.521c.855 0 1.623.07 2.302.21l-.404 2.708c-.797-.176-1.5-.264-2.11-.264-1.558 0-2.89.633-3.998 1.899-1.108 1.265-1.661 2.841-1.661 4.728V1964h-2.918v-19.266h2.408l.334 3.569h.14c.715-1.254 1.577-2.221 2.584-2.9a5.817 5.817 0 0 1 3.323-1.02zM206.769 1964l-.58-2.742h-.141c-.961 1.207-1.919 2.024-2.874 2.452-.955.428-2.148.642-3.577.642-1.91 0-3.407-.493-4.491-1.477-1.084-.984-1.626-2.385-1.626-4.201 0-3.89 3.11-5.93 9.334-6.117l3.27-.106v-1.195c0-1.512-.326-2.628-.976-3.349-.65-.72-1.69-1.08-3.12-1.08-1.606 0-3.422.491-5.45 1.476l-.896-2.233c.949-.515 1.989-.92 3.12-1.213 1.13-.293 2.264-.439 3.401-.439 2.297 0 4 .51 5.107 1.53 1.107 1.019 1.66 2.654 1.66 4.904V1964h-2.161zm-6.592-2.057c1.816 0 3.243-.498 4.28-1.494 1.037-.996 1.556-2.39 1.556-4.183v-1.74l-2.918.122c-2.32.082-3.993.443-5.019 1.081-1.025.64-1.538 1.632-1.538 2.98 0 1.055.32 1.857.958 2.408.639.551 1.532.826 2.68.826zm20.17 0c.516 0 1.014-.038 1.494-.114.48-.076.861-.155 1.143-.237v2.232c-.317.153-.783.279-1.398.378-.615.1-1.169.15-1.66.15-3.728 0-5.59-1.963-5.59-5.89v-11.46h-2.76v-1.406l2.76-1.213 1.23-4.113h1.687v4.464h5.59v2.268h-5.59v11.338c0 1.16.276 2.05.826 2.672.551.62 1.307.931 2.268.931zm8.586 2.057h-2.918v-19.266h2.918V1964zm-3.164-24.486c0-.668.164-1.158.492-1.468.328-.31.738-.466 1.23-.466.47 0 .874.158 1.214.475.34.316.51.802.51 1.459 0 .656-.17 1.145-.51 1.467-.34.323-.745.484-1.213.484-.493 0-.903-.161-1.23-.484-.329-.322-.493-.811-.493-1.467zm25.162 14.836c0 3.14-.79 5.592-2.373 7.356-1.582 1.764-3.767 2.646-6.556 2.646-1.723 0-3.252-.405-4.588-1.213-1.336-.809-2.367-1.97-3.094-3.48-.727-1.513-1.09-3.282-1.09-5.31 0-3.14.785-5.586 2.356-7.338 1.57-1.752 3.75-2.628 6.539-2.628 2.695 0 4.837.896 6.424 2.69 1.588 1.792 2.382 4.218 2.382 7.277zm-14.677 0c0 2.46.492 4.336 1.476 5.625.984 1.289 2.432 1.933 4.342 1.933 1.91 0 3.36-.641 4.35-1.925.99-1.283 1.486-3.16 1.486-5.633 0-2.45-.495-4.31-1.486-5.581-.99-1.272-2.452-1.908-4.385-1.908-1.91 0-3.352.627-4.324 1.881-.973 1.254-1.46 3.123-1.46 5.608zm32.158 9.65v-12.463c0-1.57-.357-2.742-1.072-3.516-.715-.773-1.834-1.16-3.358-1.16-2.015 0-3.492.545-4.43 1.635-.937 1.09-1.406 2.889-1.406 5.397V1964h-2.918v-19.266h2.373l.475 2.637h.14c.598-.95 1.436-1.684 2.514-2.206 1.078-.521 2.28-.782 3.604-.782 2.32 0 4.066.56 5.238 1.679 1.172 1.119 1.758 2.909 1.758 5.37V1964h-2.918zm20.522-5.256c0 1.793-.668 3.176-2.004 4.149-1.336.972-3.211 1.459-5.625 1.459-2.555 0-4.547-.405-5.977-1.213v-2.707c.926.468 1.92.838 2.98 1.107 1.06.27 2.083.404 3.067.404 1.523 0 2.695-.243 3.516-.73.82-.485 1.23-1.227 1.23-2.223 0-.75-.325-1.391-.975-1.925-.65-.533-1.92-1.163-3.806-1.89-1.793-.667-3.068-1.25-3.823-1.748-.756-.498-1.319-1.064-1.688-1.697-.369-.632-.554-1.388-.554-2.267 0-1.57.64-2.81 1.916-3.718 1.278-.908 3.03-1.362 5.256-1.362 2.074 0 4.102.422 6.082 1.265l-1.037 2.373c-1.933-.796-3.685-1.195-5.256-1.195-1.382 0-2.425.217-3.129.65-.703.434-1.054 1.032-1.054 1.794 0 .515.132.955.395 1.318.264.363.689.709 1.275 1.037.586.328 1.71.803 3.375 1.424 2.285.832 3.829 1.67 4.631 2.514.803.843 1.205 1.904 1.205 3.181z" transform="translate(-101 -1937)"/>
</svg>
