<svg xmlns="http://www.w3.org/2000/svg" width="105" height="36" viewBox="0 0 105 36">
    <defs>
        <linearGradient id="a" x1="100%" x2="0%" y1="50%" y2="50%">
            <stop offset="0%" stop-color="#3FBDF0"/>
            <stop offset="100%" stop-color="#3A77F5"/>
        </linearGradient>
    </defs>
    <path fill="url(#a)" fill-rule="evenodd" d="M114.828 3761.79c0 2.6-.888 4.602-2.663 6.002-1.775 1.4-4.315 2.1-7.62 2.1h-3.024V3780h-2.988v-25.7h6.662c6.422 0 9.633 2.497 9.633 7.49zm-13.307 5.536h2.69c2.648 0 4.564-.428 5.748-1.283 1.184-.856 1.775-2.227 1.775-4.113 0-1.7-.556-2.965-1.67-3.797-1.113-.832-2.847-1.248-5.203-1.248h-3.34v10.441zm26.217-6.943c.856 0 1.624.07 2.303.21l-.404 2.708c-.797-.176-1.5-.264-2.11-.264-1.558 0-2.891.633-3.999 1.899-1.107 1.265-1.66 2.841-1.66 4.728V3780h-2.919v-19.266h2.409l.334 3.569h.14c.715-1.254 1.576-2.221 2.584-2.9a5.817 5.817 0 0 1 3.322-1.02zm8.006 19.617h-2.917v-19.266h2.917V3780zm-3.164-24.486c0-.668.164-1.158.493-1.468.328-.31.738-.466 1.23-.466.469 0 .873.158 1.213.475.34.316.51.802.51 1.459 0 .656-.17 1.145-.51 1.467-.34.323-.744.484-1.213.484-.492 0-.902-.161-1.23-.484-.329-.322-.493-.811-.493-1.467zm16.233 24.838c-2.789 0-4.948-.859-6.478-2.576-1.529-1.716-2.293-4.145-2.293-7.286 0-3.222.776-5.713 2.329-7.47 1.552-1.758 3.764-2.637 6.635-2.637.926 0 1.852.1 2.778.299.926.199 1.652.433 2.18.703l-.897 2.478a13.72 13.72 0 0 0-2.11-.641c-.761-.17-1.435-.255-2.02-.255-3.915 0-5.872 2.496-5.872 7.488 0 2.367.478 4.184 1.433 5.45.955 1.265 2.37 1.898 4.245 1.898 1.605 0 3.252-.346 4.94-1.037v2.584c-1.29.668-2.913 1.002-4.87 1.002zm11.54-.352h-2.919v-19.266h2.918V3780zm-3.165-24.486c0-.668.164-1.158.492-1.468.329-.31.739-.466 1.23-.466.47 0 .874.158 1.214.475.34.316.51.802.51 1.459 0 .656-.17 1.145-.51 1.467-.34.323-.744.484-1.213.484-.492 0-.902-.161-1.23-.484-.329-.322-.493-.811-.493-1.467zM178.905 3780v-12.463c0-1.57-.357-2.742-1.072-3.516-.715-.773-1.834-1.16-3.358-1.16-2.015 0-3.492.545-4.43 1.635-.937 1.09-1.405 2.889-1.405 5.397V3780h-2.918v-19.266h2.373l.474 2.637h.14c.599-.95 1.436-1.684 2.515-2.206 1.078-.521 2.279-.782 3.603-.782 2.32 0 4.066.56 5.238 1.679 1.172 1.119 1.758 2.909 1.758 5.37V3780h-2.918zm23.862-19.266v1.846l-3.569.422c.328.41.621.946.88 1.608.257.662.386 1.41.386 2.242 0 1.886-.645 3.392-1.934 4.517-1.289 1.125-3.058 1.688-5.308 1.688a8.84 8.84 0 0 1-1.617-.141c-1.243.656-1.864 1.482-1.864 2.479 0 .527.217.917.65 1.168.434.252 1.178.378 2.233.378h3.41c2.086 0 3.689.44 4.808 1.319 1.119.879 1.679 2.156 1.679 3.832 0 2.133-.856 3.759-2.567 4.878-1.71 1.119-4.207 1.678-7.488 1.678-2.52 0-4.462-.468-5.827-1.406-1.365-.937-2.048-2.262-2.048-3.972 0-1.172.375-2.186 1.125-3.041.75-.856 1.805-1.436 3.164-1.74a3.053 3.053 0 0 1-1.24-1.038c-.333-.469-.5-1.014-.5-1.635 0-.703.187-1.318.562-1.845.375-.528.967-1.037 1.776-1.53-.996-.41-1.808-1.107-2.435-2.091-.627-.985-.94-2.11-.94-3.375 0-2.11.632-3.736 1.898-4.878 1.266-1.143 3.059-1.714 5.379-1.714 1.008 0 1.916.117 2.725.351h6.662zm-15.364 22.5c0 1.043.44 1.834 1.319 2.373.879.54 2.138.809 3.78.809 2.448 0 4.262-.366 5.44-1.099 1.177-.732 1.766-1.725 1.766-2.98 0-1.042-.322-1.766-.967-2.17-.644-.404-1.857-.606-3.638-.606h-3.498c-1.325 0-2.356.316-3.094.949s-1.108 1.54-1.108 2.724zm1.582-16.33c0 1.348.381 2.367 1.143 3.059.762.691 1.822 1.037 3.182 1.037 2.847 0 4.271-1.383 4.271-4.148 0-2.895-1.441-4.342-4.324-4.342-1.371 0-2.426.369-3.164 1.107s-1.108 1.834-1.108 3.287z" transform="translate(-98 -3753)"/>
</svg>
