<svg xmlns="http://www.w3.org/2000/svg" width="180" height="89" viewBox="0 0 180 89">
    <g fill="none" fill-rule="evenodd">
        <rect width="11" height="56" x="7" y="26" fill="#DDEBF6" rx="5.5"/>
        <rect width="11" height="44" x="22" y="38" fill="#DDEBF6" rx="5.5"/>
        <rect width="11" height="76" x="37" y="6" fill="#A9D6C6" rx="5.5"/>
        <rect width="11" height="82" x="52" fill="#A9D6C6" rx="5.5"/>
        <rect width="11" height="68" x="67" y="14" fill="#A9D6C6" rx="5.5"/>
        <rect width="11" height="44" x="82" y="38" fill="#DDEBF6" rx="5.5"/>
        <rect width="11" height="31" x="112" y="51" fill="#EDA5A8" rx="5.5"/>
        <rect width="11" height="31" x="97" y="51" fill="#EDA5A8" rx="5.5"/>
        <rect width="11" height="44" x="127" y="38" fill="#DDEBF6" rx="5.5"/>
        <rect width="11" height="56" x="142" y="26" fill="#DDEBF6" rx="5.5"/>
        <rect width="156" height="2" x="7" y="87" fill="#95B0C4" rx="1"/>
        <rect width="5" height="2" y="87" fill="#95B0C4" rx="1"/>
        <rect width="15" height="2" x="165" y="87" fill="#95B0C4" rx="1"/>
    </g>
</svg>
