<svg xmlns="http://www.w3.org/2000/svg" xmlns:xlink="http://www.w3.org/1999/xlink" width="166" height="111" viewBox="0 0 166 111">
    <defs>
        <path id="a" d="M0 12.527A2.999 2.999 0 0 1 2.997 9.52h107.708a3 3 0 0 1 2.997 3.008v15.455a2.999 2.999 0 0 1-2.997 3.008H2.997A3 3 0 0 1 0 27.982V12.527z"/>
        <mask id="c" width="113.702" height="21.471" x="0" y="0" fill="#fff">
            <use xlink:href="#a"/>
        </mask>
        <path id="b" d="M0 54.835a2.999 2.999 0 0 1 2.997-3.008h107.708a3 3 0 0 1 2.997 3.008V70.29a2.999 2.999 0 0 1-2.997 3.008H2.997A3 3 0 0 1 0 70.29V54.835z"/>
        <mask id="d" width="113.702" height="21.471" x="0" y="0" fill="#fff">
            <use xlink:href="#b"/>
        </mask>
    </defs>
    <g fill="none" fill-rule="evenodd">
        <g stroke-width="5">
            <path stroke="#92B0C3" d="M89.065 47.131c4.792-12.315 18.264-18.036 30.916-13.129 11.463 4.447 17.45 18.273 12.93 29.861-4.859 12.455-18.2 18.444-30.467 13.679-12.226-4.75-18.137-18.186-13.38-30.41m4.195 60.056c4.733 1.774 7.421.96 10.089-3.357 1.746-2.826 3.711-4.873 7.407-4.078a5.837 5.837 0 0 0 2.662-.062c3.782-1.032 5.924 1.142 7.811 3.851.99 1.42 2.074 2.707 4.156 3.465.232.04.868.24 1.504.238 3.036-.013 5.604-1.537 8.221-2.77 4.537-2.137 5.626-4.537 4.488-9.415-.72-3.087-.831-5.888 2.274-7.922.984-.646 1.798-1.676 2.444-2.686 1.488-2.324 3.59-2.82 6.104-2.399.8.134 1.596.29 2.397.408 3.517.52 6.28-.907 7.71-4.139a67.743 67.743 0 0 0 2.44-6.36c1.072-3.282.051-6.09-2.785-8.083-.73-.513-1.447-1.05-2.22-1.491-2.356-1.348-3.458-3.202-2.943-6.022.244-1.328.202-2.791-.08-4.115-.534-2.504.394-4.24 2.348-5.63.726-.518 1.433-1.062 2.15-1.592 2.86-2.11 3.813-5.038 2.607-8.372-.578-1.599-1.317-3.142-2.02-4.692-2.207-4.867-4.602-6.09-9.867-4.945-3.018.656-5.735.732-7.722-2.276-.692-1.049-1.788-1.909-2.86-2.612-1.93-1.267-2.459-2.869-2.263-5.157.774-9.055.608-9.213-7.94-12.573-5.528-2.173-7.825-1.52-11.064 3.406-1.726 2.624-3.7 4.428-7.146 3.767-1.091-.209-2.311-.202-3.388.056-2.797.67-4.692-.468-6.19-2.672-.456-.67-.927-1.33-1.411-1.98-1.894-2.544-4.454-3.433-7.499-2.6-2.046.562-3.937 1.496-5.816 2.459-4.724 2.42-5.596 4.112-4.552 9.343.635 3.189.711 6.074-2.43 8.174-1.049.702-1.904 1.787-2.636 2.844-1.205 1.738-2.724 2.22-4.8 2.08-9.436-.642-9.546-.526-12.89 8.239-2.006 5.26-1.342 7.578 3.388 10.671 2.796 1.828 4.648 3.938 3.868 7.555a5.84 5.84 0 0 0 .061 2.66c.901 3.322-.704 5.407-3.273 7.085-.407.266-.814.534-1.203.825-2.848 2.138-3.772 5.05-2.548 8.389.613 1.672 1.38 3.29 2.125 4.911 2.095 4.566 4.59 5.85 9.55 4.708 3.223-.743 6.074-.737 8.113 2.423.47.728 1.19 1.391 1.945 1.818 3.09 1.75 3.358 4.476 2.802 7.542-.088.479-.188.956-.252 1.438-.494 3.68.947 6.309 4.366 7.808 1.558.684 3.173 1.24 4.768 1.837"/>
            <path stroke="#A3D6C6" d="M93.26 107.188c4.732 1.774 7.42.96 10.088-3.357 1.746-2.826 3.711-4.873 7.407-4.078a5.837 5.837 0 0 0 2.662-.062c3.782-1.032 5.924 1.142 7.811 3.851.99 1.42 2.074 2.707 4.156 3.465.232.04.868.24 1.504.238 3.036-.013 5.604-1.537 8.221-2.77 4.537-2.137 5.626-4.537 4.488-9.415-.72-3.087-.831-5.888 2.274-7.922.984-.646 1.798-1.676 2.444-2.686 1.488-2.324 3.59-2.82 6.104-2.399.8.134 1.596.29 2.397.408 3.517.52 6.28-.907 7.71-4.139a67.743 67.743 0 0 0 2.44-6.36c1.072-3.282.051-6.09-2.785-8.083-.73-.513-1.447-1.05-2.22-1.491-2.356-1.348-3.458-3.202-2.943-6.022.244-1.328.202-2.791-.08-4.115-.534-2.504.394-4.24 2.348-5.63.726-.518 1.433-1.062 2.15-1.592 2.86-2.11 3.813-5.038 2.607-8.372-.578-1.599-1.317-3.142-2.02-4.692-2.207-4.867-4.602-6.09-9.867-4.945-3.018.656-5.735.732-7.722-2.276-.692-1.049-1.788-1.909-2.86-2.612-1.93-1.267-2.459-2.869-2.263-5.157.774-9.055.608-9.213-7.94-12.573-5.528-2.173-7.825-1.52-11.064 3.406-1.726 2.624-3.7 4.428-7.146 3.767-1.091-.209-2.311-.202-3.388.056-2.797.67-4.692-.468-6.19-2.672-.456-.67-.927-1.33-1.411-1.98-1.894-2.544-4.454-3.433-7.499-2.6-2.046.562-3.937 1.496-5.816 2.459-4.724 2.42-5.596 4.112-4.552 9.343.635 3.189.711 6.074-2.43 8.174-1.049.702-1.904 1.787-2.636 2.844-1.205 1.738-2.724 2.22-4.8 2.08-9.436-.642-9.546-.526-12.89 8.239-2.006 5.26-1.342 7.578 3.388 10.671 2.796 1.828 4.648 3.938 3.868 7.555a5.84 5.84 0 0 0 .061 2.66c.901 3.322-.704 5.407-3.273 7.085-.407.266-.814.534-1.203.825-2.848 2.138-3.772 5.05-2.548 8.389.613 1.672 1.38 3.29 2.125 4.911 2.095 4.566 4.59 5.85 9.55 4.708 3.223-.743 6.074-.737 8.113 2.423.47.728 1.19 1.391 1.945 1.818 3.09 1.75 3.358 4.476 2.802 7.542-.088.479-.188.956-.252 1.438-.494 3.68.947 6.309 4.366 7.808 1.558.684 3.173 1.24 4.768 1.837"/>
        </g>
        <g transform="translate(0 34.846)">
            <use fill="#FFF" stroke="#D4E1E7" stroke-width="2" mask="url(#c)" xlink:href="#a"/>
            <use fill="#FFF" stroke="#D4E1E7" stroke-width="2" mask="url(#d)" xlink:href="#b"/>
            <rect width="46.01" height="6.135" fill="#95B0C5" rx="3"/>
            <rect width="46.01" height="6.135" y="42.308" fill="#95B0C5" rx="3"/>
            <path fill="#D6E2E9" d="M8.435 16.87h70.548v6.135H8.435z"/>
        </g>
    </g>
</svg>
