<svg xmlns="http://www.w3.org/2000/svg" width="177" height="78" viewBox="0 0 177 78">
    <path fill="#00ADEF" fill-rule="evenodd" d="M138.677 34.393h16.256c-.502-4.253-3.678-7.376-7.808-7.376-4.647 0-7.44 2.863-8.448 7.376zm-24.912 13.795c5.902-.067 7.358-5.983 7.358-10.304 0-5.468-2.412-10.035-7.358-10.102-5.411-.07-7.441 4.824-7.441 10.102 0 4.771 1.786 10.304 7.441 10.304zm63.22-23.8a9.722 9.722 0 0 0-9.73-9.735 9.656 9.656 0 0 0-7.046 3.028 25.297 25.297 0 0 0-14.502-4.539 25.28 25.28 0 0 0-14.623 4.634A10.366 10.366 0 0 0 124 14.994c-1.958-.001-3.876.552-5.533 1.595-3.803-6.787-11.053-11.37-19.38-11.37-7.617 0-14.324 3.82-18.342 9.639a18.403 18.403 0 0 0-13.233-5.589 18.321 18.321 0 0 0-9.39 2.576C58.055 5.289 52.738 0 46.17 0c-6.61 0-11.964 5.358-11.964 11.955l.028.463c-1.282-.19-2.59-.3-3.926-.3a25.9 25.9 0 0 0-10.889 2.386 13.196 13.196 0 0 0-6.242-1.569C5.914 12.935 0 18.838 0 26.12c0 3.857 1.676 7.306 4.307 9.72a27.574 27.574 0 0 0-.11 2.398c0 14.423 11.693 26.104 26.111 26.104a26.01 26.01 0 0 0 15.044-4.772c3.83 5.237 10.005 8.657 16.981 8.657.177 0 .341-.013.503-.027C64.854 73.909 70.264 78 76.656 78c6.46 0 11.95-4.198 13.885-10.02 2.224 4.214 6.623 7.076 11.706 7.076 6.352 0 11.654-4.485 12.934-10.455.913.12 1.853.205 2.795.205 5.18 0 9.88-1.965 13.462-5.168a25.28 25.28 0 0 0 14.27 4.39c14.051 0 25.43-11.397 25.43-25.45a24.9 24.9 0 0 0-.505-5.072c3.706-1.377 6.352-4.933 6.352-9.118zm-13.274 11.34c0 3.177-.955 3.994-4.075 3.994h-20.96c0 4.895 3.174 8.466 8.572 8.466 6.99 0 6.99-4.58 10.738-4.58 2.223 0 3.816 1.91 3.816 3.625 0 5.589-8.966 8.192-14.554 8.192-10.547 0-15.755-5.806-17.321-12.32-1.403 6.829-5.875 12.32-13.82 12.32-4.25 0-7.424-1.715-9.142-4.7h-.135v12.392c0 3.052-1.842 4.647-4.635 4.647-2.796 0-4.634-1.595-4.634-4.647V28.546L87.135 58.1c-2.22 6.351-4.77 9.664-10.616 9.664-4.128 0-5.847-2.033-5.847-4.267 0-2.483 1.786-3.75 4.268-3.75h.952c1.2 0 2.535-.053 3.232-2.916l-9.65-27.522c-.34-.996-.6-1.744-.789-2.373-.22.287-.463.545-.751.847l-6.854 7.183 9.663 12.963c.312.436.952 1.46.952 2.985 0 2.358-1.907 4.511-4.387 4.511-2.29 0-3.503-1.142-4.197-2.153l-8.764-12.405-3.243 2.862v7.063c0 3.04-1.84 4.633-4.634 4.633-2.807 0-4.648-1.593-4.648-4.633v-3.423c-1.661 5.48-7.862 8.056-13.845 8.056-8.38 0-15.37-3.748-15.37-8.328 0-2.03 1.143-3.87 3.746-3.87 4.006 0 4.389 5.724 11.243 5.724 3.298 0 5.397-1.472 5.397-3.367 0-2.357-2.032-2.739-5.329-3.57L22.2 40.69c-5.397-1.334-9.594-3.57-9.594-9.801 0-7.55 7.495-10.358 13.912-10.358 7.045 0 14.173 2.808 14.173 7.06 0 2.166-1.472 4.063-3.883 4.063-3.626 0-3.749-4.255-9.594-4.255-3.243 0-5.341.886-5.341 2.863 0 2.155 2.098 2.672 4.96 3.301l3.87.9c4.457 1.008 9.621 2.766 11.119 7.182V12.652c0-3.04 1.84-4.634 4.647-4.634 2.795 0 4.635 1.594 4.635 4.634v21.1l10.288-11.437c.955-1.021 2.168-1.784 3.557-1.784 1.513 0 3.12.98 3.898 2.399.75-1.447 2.249-2.4 3.992-2.4 2.48 0 4.197 1.404 4.755 3.503l5.984 21.675h.122l5.658-21.033c.64-2.36 1.907-4.144 4.456-4.144 2.193 0 3.46 1.088 4.13 2.207.556-1.431 1.797-2.207 3.801-2.207 2.739 0 4.197 1.539 4.197 4.388v1.459h.136c1.527-3.938 5.274-5.847 9.77-5.847 6.624 0 12.538 4.157 14.134 12.84 1.798-7.851 7.835-12.84 16.953-12.84 10.671 0 16.776 7.564 16.776 15.198zm2.874-14.53h1.814s.013 0 1.39 4.02l1.294-4.02h1.798v5.848h-1.199s-.013 0-.013-4.145l-1.433 4.145h-.995s-.013 0-1.443-4.104v4.104h-1.214v-5.848h.001zm-5.451 1.076v-1.076h4.783v1.076h-1.743v4.771h-1.295v-4.771h-1.745z"/>
</svg>
